<svg width="1592" height="362" viewBox="0 0 1592 362" fill="none" xmlns="http://www.w3.org/2000/svg">
<path d="M1357.86 355H1287.36V0H1373.86L1521.36 251.5V0H1591.36V355H1509.36L1357.86 95V355Z" fill="black"/>
<path d="M1222.15 355H963.648V0H1218.65V60.5H1036.65V144H1202.15V204H1036.65V294.5H1222.15V355Z" fill="black"/>
<path d="M897.406 355H682.906V0H756.906V294.5H897.406V355Z" fill="black"/>
<path d="M631.031 355H553.531L526.531 279H383.531L356.531 355H281.531L416.031 0H496.531L631.031 355ZM455.031 77.5L405.031 219H505.531L455.031 77.5Z" fill="black"/>
<path d="M125 361.5C42 361.5 0.5 314.5 0.5 247V229.5H73.5V246C73.5 277.5 87 298.5 123.5 298.5C159.5 298.5 174.5 278 174.5 241.5V0H249V238C249 315.5 202 361.5 125 361.5Z" fill="black"/>
</svg>
