<svg width="659" height="1380" viewBox="0 0 659 1380" fill="none" xmlns="http://www.w3.org/2000/svg">
<path d="M92.0549 2.2844C74.9796 2.2844 58.0901 1.74255 42.3466 9.23948C29.5237 15.3456 22.6942 25.243 13.2989 35.0142C5.47593 43.1501 5.97292 58.8399 4.09365 69.1759C1.33381 84.355 1.85896 106.632 3.7868 122.055C5.68483 137.239 19.7147 156.904 28.4364 168.797C39.3319 183.655 49.655 201.032 66.2802 210.323C82.5594 219.42 97.0716 227.405 116.398 230.165C141.475 233.748 168.784 237.939 194.131 237.939C217.237 237.939 238.761 233.711 260.409 225.051C270.814 220.889 284.331 223.21 295.389 223.21C306.33 223.21 317.956 222.078 328.732 224.233C369.238 232.334 398.043 264.413 413.42 301.148C420.841 318.875 425.656 353.58 413.216 369.574C399.829 386.786 367.095 399.306 345.711 392.178C332.706 387.843 316.737 381.176 305.208 374.177C293.958 367.346 277.281 368.653 264.704 368.653C252.423 368.653 252.226 384.631 252.226 394.837C252.226 418.724 258.753 431.845 278.922 445.875C304.312 463.538 334.715 468.943 364.428 474.514C399.603 481.109 439.517 479.831 472.334 464.388C489.047 456.523 507.334 449.412 522.452 438.613C528.306 434.431 533.657 426.51 537.589 420.612C540.655 416.013 545.541 413.945 548.635 410.077C550.544 407.691 558.578 409.156 561.523 409.156C570.04 409.156 574.367 415.955 579.933 421.123C591.88 432.217 593.917 452.835 596.094 468.07C597.953 481.084 596.16 494.792 598.753 507.755C600.793 517.957 602.026 528.59 602.026 539.053C602.026 556.203 605.783 578.612 601.003 595C596.22 611.399 591.545 633.199 579.013 645.731C570.725 654.019 553.699 658.407 548.226 668.745C541.016 682.363 555.485 704.378 559.273 717.635C561.836 726.606 568.594 734.234 575.433 739.83C595.927 756.597 609.164 773.232 621.357 797.618C627.822 810.548 627.8 824.139 627.8 838.223C627.8 854.048 623.9 861.841 616.754 874.942C609.974 887.372 592.06 897.303 579.115 901.535C557.11 908.729 536.425 909.922 513.451 909.922C494.417 909.922 477.265 911.115 459.447 903.478C438.293 894.412 420.959 881.11 398.487 874.533C383.313 870.092 366.074 868.54 351.643 862.464C339.615 857.399 324.057 856.532 311.14 856.532C294.343 856.532 287.185 862.096 279.842 876.783C273.135 890.196 265.672 905.118 263.375 920.048C256.461 964.985 290.824 999.235 330.573 1014.04C357.28 1023.99 385.797 1025.91 414.239 1025.91C428.079 1025.91 442.704 1031.63 456.583 1033.17C466.816 1034.31 482.278 1036.89 487.778 1046.98C491.91 1054.55 497.086 1057.83 497.086 1067.54C497.086 1076.19 500.63 1093.6 491.563 1099.14C468.767 1113.07 449.447 1132.52 421.807 1136.47C416.354 1137.25 407.523 1163.74 406.977 1168.39C405.044 1184.82 410.015 1198.19 418.33 1212.26C439.46 1248.02 468.388 1254.2 507.007 1254.2C539.044 1254.2 575.109 1272.16 602.026 1287.75C622.262 1299.46 635.837 1317.27 645.29 1338.07C651.528 1351.79 657.257 1362.15 657.257 1377.55" stroke="black" stroke-width="3" stroke-linecap="round"/>
</svg>
