<svg width="604" height="192" viewBox="0 0 604 192" fill="none" xmlns="http://www.w3.org/2000/svg">
<g clip-path="url(#clip0_293_1177)">
<path d="M50.8495 192.878C47.9092 192.878 46.0068 191.457 45.1419 188.615L0.259436 7.05318L0 5.54854C0 2.87359 1.6431 1.53613 4.92929 1.53613H43.0664C46.3525 1.53613 48.2551 3.04079 48.774 6.05008L79.6469 145.732C80.1658 148.073 81.2035 149.243 82.7602 149.243C84.3168 149.243 85.3545 147.989 85.8734 145.481L111.039 6.05008C111.558 3.04079 113.374 1.53613 116.487 1.53613H170.968C174.082 1.53613 175.898 3.04079 176.417 6.05008L201.582 145.732C202.101 148.24 203.139 149.494 204.695 149.494C206.252 149.494 207.29 148.323 207.808 145.983L238.681 6.05008C239.2 3.04079 241.103 1.53613 244.389 1.53613H282.526C284.255 1.53613 285.552 2.03768 286.418 3.04079C287.283 4.04387 287.542 5.38135 287.196 7.05318L242.313 188.615C241.448 191.457 239.547 192.878 236.606 192.878H170.968C167.682 192.878 165.78 191.373 165.261 188.364L146.581 67.2393C146.409 65.066 145.457 63.9792 143.728 63.9792C142.344 63.9792 141.393 65.066 140.874 67.2393L122.194 188.364C121.676 191.373 119.773 192.878 116.487 192.878H50.8495ZM299.051 192.878C295.591 192.878 293.862 191.206 293.862 187.862V6.55165C293.862 3.20796 295.591 1.53613 299.051 1.53613H423.84C427.3 1.53613 429.029 3.20796 429.029 6.55165V36.6447C429.029 39.9884 427.3 41.6602 423.84 41.6602H345.49C342.03 41.6602 340.301 43.332 340.301 46.6757V72.2548C340.301 75.5986 342.03 77.2703 345.49 77.2703H415.278C418.738 77.2703 420.467 78.9421 420.467 82.2859V112.128C420.467 115.472 418.738 117.144 415.278 117.144H345.49C342.03 117.144 340.301 118.815 340.301 122.159V147.738C340.301 151.082 342.03 152.754 345.49 152.754H423.84C427.3 152.754 429.029 154.426 429.029 157.769V187.862C429.029 191.206 427.3 192.878 423.84 192.878H299.051ZM447.973 192.878C444.514 192.878 442.785 191.206 442.785 187.862V6.55165C442.785 3.20796 444.514 1.53613 447.973 1.53613H523.729C549.845 1.53613 568.352 7.0532 579.248 18.0873C587.031 25.945 590.923 36.3939 590.923 49.4343C590.923 58.7966 589.107 66.9049 585.475 73.7595C581.843 80.6141 576.567 85.9638 569.649 89.8091C568.092 90.4778 567.314 91.2301 567.314 92.0661C567.314 92.7348 568.265 93.32 570.168 93.8215C580.199 96.8308 587.81 102.013 592.998 109.37C598.359 116.558 601.041 125.503 601.041 136.203C601.041 145.231 599.225 153.506 595.593 161.029C591.961 168.553 587.203 174.488 581.324 178.834C568.524 188.197 550.538 192.878 527.361 192.878H447.973ZM519.837 78.775C536.269 78.775 544.484 72.5056 544.484 59.9668C544.484 53.7811 542.408 49.1835 538.257 46.1742C536.009 44.5024 532.981 43.332 529.177 42.6633C525.545 41.9947 520.356 41.6602 513.611 41.6602H494.413C490.953 41.6602 489.224 43.332 489.224 46.6757V73.7595C489.224 77.1032 490.953 78.775 494.413 78.775H519.837ZM521.394 152.754C527.967 152.754 533.415 152.336 537.738 151.5C542.236 150.664 545.868 149.159 548.635 146.986C552.613 143.977 554.602 139.128 554.602 132.441C554.602 125.085 552.18 120.153 547.337 117.645C542.668 115.137 535.144 113.884 524.766 113.884H494.413C490.953 113.884 489.224 115.555 489.224 118.899V147.738C489.224 151.082 490.953 152.754 494.413 152.754H521.394Z" fill="#F3F3F3"/>
</g>
<defs>
<clipPath id="clip0_293_1177">
<rect width="604" height="192" fill="white"/>
</clipPath>
</defs>
</svg>
